<?xml version="1.0" encoding="UTF-8"?>
<svg version="1.1" xmlns="http://www.w3.org/2000/svg" width="1024" height="1024">
<path d="M0 0 C337.92 0 675.84 0 1024 0 C1024 337.92 1024 675.84 1024 1024 C686.08 1024 348.16 1024 0 1024 C0 686.08 0 348.16 0 0 Z " fill="#F6F6F6" transform="translate(0,0)"/>
<path d="M0 0 C12.21 0 24.42 0 37 0 C31.93135798 10.13728403 26.84357718 20.25333786 21.625 30.3125 C20.96484309 31.58650682 20.30468685 32.86051399 19.64453125 34.13452148 C13.37527077 46.22659861 7.07172536 58.29855439 0.6171875 70.29296875 C-0.63043857 72.61185577 -1.87794663 74.93080506 -3.125 77.25 C-3.43996429 77.83571777 -3.75492859 78.42143555 -4.07943726 79.02490234 C-9.25315527 88.65519585 -14.31140096 98.34155074 -19.3125 108.0625 C-19.65140259 108.7211203 -19.99030518 109.3797406 -20.33947754 110.05831909 C-21.66147241 112.62776711 -22.98327837 115.1973122 -24.30484009 117.76698303 C-31.62139873 131.98766653 -39.16976267 146.05551351 -47 160 C-47.66 160 -48.32 160 -49 160 C-49.46672119 159.10414185 -49.46672119 159.10414185 -49.94287109 158.19018555 C-63.00323636 133.12330515 -63.00323636 133.12330515 -76.28076172 108.17114258 C-76.91636325 106.98910694 -77.55194246 105.80705929 -78.1875 104.625 C-78.50446838 104.03560638 -78.82143677 103.44621277 -79.14801025 102.83895874 C-84.41418377 93.03897692 -89.54810206 83.1756065 -94.63525391 73.28173828 C-98.72097733 65.34092004 -102.88470838 57.4506446 -107.1875 49.625 C-111.43827286 41.88707913 -115.63268777 34.12239506 -119.75 26.3125 C-120.2761792 25.32523926 -120.8023584 24.33797852 -121.34448242 23.32080078 C-121.82377197 22.40669434 -122.30306152 21.49258789 -122.796875 20.55078125 C-123.22323242 19.74294189 -123.64958984 18.93510254 -124.08886719 18.1027832 C-125 16 -125 16 -125 13 C-123.68 12.67 -122.36 12.34 -121 12 C-116.61653967 19.08922779 -112.66857333 26.33098955 -108.875 33.75 C-104.72313054 41.80678757 -100.5017087 49.81314378 -96.125 57.75 C-91.4044283 66.3261792 -86.85858765 74.98592649 -82.375 83.6875 C-82.05209991 84.3141153 -81.72919983 84.94073059 -81.39651489 85.58633423 C-80.12630275 88.05185726 -78.85638851 90.5175334 -77.58692932 92.98344421 C-75.09977153 97.81259135 -72.59287451 102.63086979 -70.0625 107.4375 C-69.69189453 108.14213379 -69.32128906 108.84676758 -68.93945312 109.57275391 C-66.62634906 113.95633545 -64.28965644 118.32693184 -61.94242859 122.69230652 C-60.45623799 125.45684445 -58.97281412 128.22286415 -57.48922729 130.98880005 C-56.3893172 133.03585411 -55.28469737 135.08031933 -54.17993164 137.12475586 C-53.50254968 138.38643938 -52.82537535 139.64823439 -52.1484375 140.91015625 C-51.54177246 142.03558838 -50.93510742 143.16102051 -50.31005859 144.32055664 C-49 147 -49 147 -49 149 C-48.34 149 -47.68 149 -47 149 C-46.74653809 148.32702881 -46.49307617 147.65405762 -46.23193359 146.96069336 C-44.75956477 143.42216449 -43.04357638 140.03284894 -41.2890625 136.62890625 C-40.74316216 135.56431938 -40.74316216 135.56431938 -40.18623352 134.47822571 C-39.00190706 132.17155714 -37.81374391 129.8668948 -36.625 127.5625 C-36.21750519 126.77079407 -35.81001038 125.97908813 -35.39016724 125.16339111 C-30.23832289 115.15810351 -25.0001861 105.21370014 -19.54931641 95.36743164 C-15.03233776 87.16351744 -10.76770448 78.83524705 -6.5 70.5 C-1.27040876 60.28674017 4.03878363 50.13640588 9.58691406 40.09130859 C15.95757136 28.51772709 21.95677292 16.74674612 28 5 C19.75 5 11.5 5 3 5 C2.34 6.65 1.68 8.3 1 10 C0.00363857 12.03040907 -1.01694123 14.04902171 -2.0546875 16.05859375 C-2.50097755 16.92396004 -2.50097755 16.92396004 -2.95628357 17.80680847 C-3.92643554 19.68514508 -4.90043742 21.56144844 -5.875 23.4375 C-6.2091391 24.08249451 -6.5432782 24.72748901 -6.88754272 25.39202881 C-11.73633718 34.74836716 -16.68294583 44.04484036 -21.77294922 53.27270508 C-24.17693185 57.63498816 -26.54029697 62.01096268 -28.82421875 66.4375 C-29.27563232 67.31067871 -29.7270459 68.18385742 -30.19213867 69.08349609 C-31.03616792 70.72365747 -31.87403793 72.36700998 -32.7043457 74.01416016 C-33.08034912 74.74425293 -33.45635254 75.4743457 -33.84375 76.2265625 C-34.16537109 76.86158691 -34.48699219 77.49661133 -34.81835938 78.15087891 C-36.27222471 80.42599792 -38.04402753 82.15001871 -40 84 C-41.83565986 80.35341963 -43.66867715 76.70552447 -45.49926758 73.05639648 C-46.12224193 71.81547308 -46.7459342 70.57490981 -47.37036133 69.3347168 C-48.26833225 67.55091936 -49.16349973 65.76571153 -50.05859375 63.98046875 C-50.59798584 62.90692139 -51.13737793 61.83337402 -51.69311523 60.72729492 C-53 58 -53 58 -54 55 C-52.35 54.67 -50.7 54.34 -49 54 C-47.4933028 56.7881022 -45.99580196 59.58103958 -44.5 62.375 C-44.07074219 63.1690625 -43.64148438 63.963125 -43.19921875 64.78125 C-42.79316406 65.54179687 -42.38710938 66.30234375 -41.96875 67.0859375 C-41.59169922 67.7876709 -41.21464844 68.4894043 -40.82617188 69.21240234 C-40 71 -40 71 -40 73 C-39.34 73 -38.68 73 -38 73 C-37.77957031 72.21238281 -37.55914063 71.42476563 -37.33203125 70.61328125 C-35.5778682 65.85492108 -33.16146027 61.60520166 -30.6875 57.1875 C-26.14577208 48.97822478 -21.73699111 40.71364134 -17.4375 32.375 C-11.80973654 21.47544607 -5.95730044 10.72314079 0 0 Z " fill="#F2812E" transform="translate(560,343)"/>
<path d="M0 0 C34.92982456 0 34.92982456 0 42.625 7.5625 C46.7096381 12.86308528 46.62567906 18.54933702 46 25 C44.63598489 29.70780074 42.73612408 32.39908239 38.9375 35.5 C36 37 36 37 33 37 C34.39515577 39.02130411 35.79099966 41.04212503 37.1875 43.0625 C37.59734131 43.65579102 38.00718262 44.24908203 38.42944336 44.86035156 C40.61076693 48.01263803 42.81154518 51.14680507 45.0625 54.25 C47 57 47 57 47 58 C41.90963738 58.73028582 41.90963738 58.73028582 39 58 C36.72299429 55.5170417 35.37207203 52.53168521 33.8125 49.5625 C31.32518717 45.38071589 29.15062825 41.74885418 24.40576172 40.09667969 C18.2506518 39.12765364 12.18309038 39.43842718 6 40 C6 45.94 6 51.88 6 58 C4.02 58 2.04 58 0 58 C0 38.86 0 19.72 0 0 Z " fill="#4A5151" transform="translate(481,549)"/>
<path d="M0 0 C13.53 0 27.06 0 41 0 C41 1.98 41 3.96 41 6 C29.45 6 17.9 6 6 6 C6 12.6 6 19.2 6 26 C16.23 26 26.46 26 37 26 C37 27.98 37 29.96 37 32 C26.77 32 16.54 32 6 32 C6 38.93 6 45.86 6 53 C17.88 53 29.76 53 42 53 C42 54.65 42 56.3 42 58 C28.14 58 14.28 58 0 58 C0 38.86 0 19.72 0 0 Z " fill="#474D4E" transform="translate(420,549)"/>
<path d="M0 0 C3.485625 -0.061875 6.97125 -0.12375 10.5625 -0.1875 C12.18973999 -0.22846802 12.18973999 -0.22846802 13.84985352 -0.27026367 C19.70330289 -0.32033917 23.86470584 0.11438863 29 3 C32.05844425 6.29990037 33.83702276 8.64185634 34.375 13.125 C33.90733398 17.95754889 32.64255127 21.68203251 29 25 C22.620007 28.11886158 16.41512305 28.38555863 9.4375 28.1875 C4.7659375 28.0946875 4.7659375 28.0946875 0 28 C0 18.76 0 9.52 0 0 Z " fill="#F8F8F8" transform="translate(487,555)"/>
<path d="M0 0 C0.66 0 1.32 0 2 0 C2.51046875 1.17755859 2.51046875 1.17755859 3.03125 2.37890625 C8.05320028 13.26425062 13.78827324 18.82155554 25 23 C25 23.66 25 24.32 25 25 C24.38253906 25.25652344 23.76507812 25.51304687 23.12890625 25.77734375 C13.44365039 30.1556101 6.42206042 36.30264291 2.55859375 46.34765625 C2.37425781 46.89292969 2.18992187 47.43820312 2 48 C1.34 48 0.68 48 0 48 C-0.3403125 47.21496094 -0.680625 46.42992187 -1.03125 45.62109375 C-6.05320028 34.73574938 -11.78827324 29.17844446 -23 25 C-23 24.34 -23 23.68 -23 23 C-22.21496094 22.6596875 -21.42992187 22.319375 -20.62109375 21.96875 C-9.73574938 16.94679972 -4.17844446 11.21172676 0 0 Z " fill="#EDEEEE" transform="translate(967,944)"/>
<path d="M0 0 C2.31 0 4.62 0 7 0 C10.68073059 7.09666042 13.81057531 14.39528575 16.9375 21.75 C17.44990234 22.94882812 17.96230469 24.14765625 18.49023438 25.3828125 C21.70068554 32.90514027 24.86764605 40.44483523 28 48 C30.19955152 44.70067272 31.72477761 41.27526607 33.30078125 37.65625 C33.61903366 36.93191772 33.93728607 36.20758545 34.2651825 35.46130371 C35.28363694 33.14203469 36.29822406 30.82109904 37.3125 28.5 C38.64081012 25.46825959 39.97064806 22.43719093 41.30078125 19.40625 C41.62023712 18.67760742 41.93969299 17.94896484 42.26882935 17.19824219 C44.79585323 11.44252911 47.37401171 5.71131043 50 0 C52.31 0 54.62 0 57 0 C49.03146137 19.49645321 40.55550753 38.75610891 32 58 C29.69 58 27.38 58 25 58 C19.18326427 47.0812128 14.43515124 35.75869003 9.66796875 24.3515625 C7.17092946 18.37825282 4.59240421 12.4447324 1.9296875 6.54345703 C0 2.21246065 0 2.21246065 0 0 Z " fill="#4A5050" transform="translate(349,549)"/>
<path d="M0 0 C3.125 -0.55078125 3.125 -0.55078125 7 0 C9.56474323 2.58758646 11.219821 5.6530513 13 8.8125 C13.51546387 9.6772998 14.03092773 10.54209961 14.56201172 11.43310547 C15.58855617 13.15583077 16.60555088 14.88428712 17.61230469 16.61865234 C19.38685413 19.66385911 21.23968312 22.64714594 23.125 25.625 C23.90230469 26.88183594 23.90230469 26.88183594 24.6953125 28.1640625 C25.88012661 30.13590687 25.88012661 30.13590687 28 31 C28.38853149 29.93785278 28.38853149 29.93785278 28.78491211 28.85424805 C30.08844635 25.79223905 31.66232789 23.14372971 33.44140625 20.33203125 C34.10720703 19.27435547 34.77300781 18.21667969 35.45898438 17.12695312 C36.15314453 16.03318359 36.84730469 14.93941406 37.5625 13.8125 C38.93949149 11.63194561 40.31582775 9.45097728 41.69140625 7.26953125 C42.60708374 5.82477417 42.60708374 5.82477417 43.54125977 4.35083008 C44.99028451 2.09576103 44.99028451 2.09576103 46 0 C48.31 0 50.62 0 53 0 C51.27542054 5.15296033 48.29288662 9.4640575 45.375 14 C44.84028076 14.85158691 44.30556152 15.70317383 43.75463867 16.58056641 C41.4297023 20.27518673 39.11206378 23.9252334 36.46484375 27.3984375 C29.56475129 36.94085212 29.7675249 46.61679197 30 58 C27.69 58 25.38 58 23 58 C23.06703125 56.70449219 23.1340625 55.40898438 23.203125 54.07421875 C23.49455517 39.90695214 19.9147394 31.56714275 11.63525391 20.27539062 C8.99804002 16.60581263 6.63050943 12.77642602 4.25 8.9375 C3.82017822 8.26420654 3.39035645 7.59091309 2.94750977 6.8972168 C0 2.23392878 0 2.23392878 0 0 Z " fill="#4D5355" transform="translate(622,549)"/>
<path d="M0 0 C15.84 0 31.68 0 48 0 C48 1.98 48 3.96 48 6 C41.07 6 34.14 6 27 6 C27 23.16 27 40.32 27 58 C24.69 58 22.38 58 20 58 C20 40.84 20 23.68 20 6 C13.4 6 6.8 6 0 6 C0 4.02 0 2.04 0 0 Z " fill="#4D5354" transform="translate(568,549)"/>
<path d="M0 0 C1.4540625 0.0309375 1.4540625 0.0309375 2.9375 0.0625 C5.3632999 5.43554053 7.78425239 10.81072781 10.20068359 16.18798828 C11.02388844 18.01801847 11.84842879 19.8474485 12.67431641 21.67626953 C13.85929031 24.30085159 15.03948828 26.92753487 16.21875 29.5546875 C16.59060425 30.37556854 16.9624585 31.19644958 17.34558105 32.04220581 C17.68593384 32.80284332 18.02628662 33.56348083 18.37695312 34.34716797 C18.6789563 35.01779266 18.98095947 35.68841736 19.29211426 36.37936401 C19.9375 38.0625 19.9375 38.0625 19.9375 40.0625 C18.2875 40.0625 16.6375 40.0625 14.9375 40.0625 C14.26630451 38.6062455 13.60068193 37.14742133 12.9375 35.6875 C12.56625 34.87539063 12.195 34.06328125 11.8125 33.2265625 C10.9375 31.0625 10.9375 31.0625 10.9375 29.0625 C3.3475 29.0625 -4.2425 29.0625 -12.0625 29.0625 C-13.0525 32.0325 -14.0425 35.0025 -15.0625 38.0625 C-17.5375 38.5575 -17.5375 38.5575 -20.0625 39.0625 C-19.40352902 34.48729547 -17.63867039 30.5502913 -15.71875 26.390625 C-15.38959595 25.66760193 -15.06044189 24.94457886 -14.72131348 24.199646 C-14.02779706 22.67899802 -13.33174191 21.15950561 -12.63330078 19.64111328 C-11.56086735 17.30894957 -10.49660684 14.97318915 -9.43359375 12.63671875 C-8.75828605 11.15863772 -8.08252084 9.68076561 -7.40625 8.203125 C-7.08644165 7.50213684 -6.7666333 6.80114868 -6.43713379 6.07891846 C-3.67014808 0.07490098 -3.67014808 0.07490098 0 0 Z " fill="#4B5150" transform="translate(501.0625,641.9375)"/>
<path d="M0 0 C1.65 0 3.3 0 5 0 C7.21875 2.28125 7.21875 2.28125 9.5 5.5 C10.35935029 6.68290387 11.22147472 7.86379591 12.0859375 9.04296875 C12.54709961 9.6776709 13.00826172 10.31237305 13.48339844 10.96630859 C16.24838953 14.67403167 19.19381624 18.23580624 22.125 21.8125 C24.06375 24.184375 26.0025 26.55625 28 29 C28.33 19.43 28.66 9.86 29 0 C30.65 0 32.3 0 34 0 C34 13.2 34 26.4 34 40 C29 40 29 40 27.3059082 38.55395508 C26.80921631 37.88259521 26.31252441 37.21123535 25.80078125 36.51953125 C24.95314209 35.39973877 24.95314209 35.39973877 24.08837891 34.25732422 C23.50233887 33.45053223 22.91629883 32.64374023 22.3125 31.8125 C21.70325684 31.00055176 21.09401367 30.18860352 20.46630859 29.35205078 C19.22718593 27.69999561 17.9940825 26.04340829 16.76708984 24.38232422 C14.73002948 21.63603588 12.65015989 18.92567788 10.5559082 16.22290039 C8.69619975 13.82123971 6.84929541 11.40968796 5 9 C4.67 18.9 4.34 28.8 4 39 C2.68 39 1.36 39 0 39 C0 26.13 0 13.26 0 0 Z " fill="#4B5151" transform="translate(531,642)"/>
<path d="M0 0 C1.32 0 2.64 0 4 0 C6.12109375 2.24609375 6.12109375 2.24609375 8.4375 5.4375 C9.30788287 6.6203151 10.17901762 7.80257718 11.05078125 8.984375 C11.51822754 9.62568359 11.98567383 10.26699219 12.46728516 10.92773438 C14.12657189 13.1711281 15.82881758 15.3763951 17.54296875 17.578125 C18.13730713 18.34326416 18.73164551 19.10840332 19.34399414 19.89672852 C20.52200964 21.41191966 21.70215342 22.92545876 22.88452148 24.43725586 C23.68805054 25.47958374 23.68805054 25.47958374 24.5078125 26.54296875 C24.98879395 27.16196045 25.46977539 27.78095215 25.96533203 28.41870117 C27 30 27 30 27 32 C27.66 32 28.32 32 29 32 C29 21.77 29 11.54 29 1 C30.32 1 31.64 1 33 1 C33 14.2 33 27.4 33 41 C27.37505283 39.87501057 27.37505283 39.87501057 24.765625 36.38671875 C24.19070313 35.63197266 23.61578125 34.87722656 23.0234375 34.09960938 C22.14558594 32.90561523 22.14558594 32.90561523 21.25 31.6875 C20.68023437 30.93404297 20.11046875 30.18058594 19.5234375 29.40429688 C17.66901547 26.94615746 15.8349953 24.47267521 14 22 C11.03 18.04 8.06 14.08 5 10 C4.67 19.9 4.34 29.8 4 40 C2.68 40 1.36 40 0 40 C0 26.8 0 13.6 0 0 Z " fill="#454C4B" transform="translate(437,641)"/>
<path d="M0 0 C9.24 0 18.48 0 28 0 C28 1.65 28 3.3 28 5 C20.41 5 12.82 5 5 5 C5 9.29 5 13.58 5 18 C11.6 18 18.2 18 25 18 C25 19.32 25 20.64 25 22 C18.07 22 11.14 22 4 22 C4 26.95 4 31.9 4 37 C12.25 37 20.5 37 29 37 C29 38.32 29 39.64 29 41 C19.43 41 9.86 41 0 41 C0 27.47 0 13.94 0 0 Z " fill="#5F6564" transform="translate(624,641)"/>
<path d="M0 0 C3.0625 1.625 3.0625 1.625 6.0625 3.625 C5.4025 4.945 4.7425 6.265 4.0625 7.625 C3.340625 7.13 2.61875 6.635 1.875 6.125 C-3.32008254 3.54605688 -9.3204769 3.84703873 -14.9375 4.625 C-18.69186603 6.44297687 -20.63743189 9.17489783 -22.9375 12.625 C-23.29349164 15.42644454 -23.29349164 15.42644454 -23.25 18.5 C-23.26675781 19.52867187 -23.28351562 20.55734375 -23.30078125 21.6171875 C-22.73643896 26.2896989 -20.8613385 28.81382473 -17.375 31.875 C-13.27377462 34.8194695 -9.91125815 35.1736424 -4.9375 34.625 C-2.99406427 33.9511034 -2.99406427 33.9511034 -1.1875 33.0625 C2.0625 31.625 2.0625 31.625 4.5 31.9375 C5.015625 32.164375 5.53125 32.39125 6.0625 32.625 C5.09153542 35.44079728 4.1066061 36.59250077 1.6875 38.375 C-4.83476558 40.6240571 -11.99346127 40.89409441 -18.375 38 C-23.2814149 35.12347401 -26.78286097 30.89918163 -28.9375 25.625 C-29.84350752 19.11742673 -29.90642097 13.22621839 -26.3125 7.5625 C-19.88448794 -0.71945408 -10.00348838 -4.22322111 0 0 Z " fill="#5A5F5F" transform="translate(605.9375,642.375)"/>
<path d="M0 0 C11.55 0 23.1 0 35 0 C37.8153125 5.1046875 37.8153125 5.1046875 40.6875 10.3125 C41.26846436 11.36091064 41.84942871 12.40932129 42.44799805 13.48950195 C52 30.90938401 52 30.90938401 52 36 C50.02 36.495 50.02 36.495 48 37 C46.45612213 34.08449889 44.91533757 31.16737288 43.375 28.25 C42.73498047 27.04150391 42.73498047 27.04150391 42.08203125 25.80859375 C38.62154135 19.24915768 35.31898914 12.63797827 32 6 C21.44 5.67 10.88 5.34 0 5 C0 3.35 0 1.7 0 0 Z " fill="#F38330" transform="translate(421,329)"/>
<path d="M0 0 C1.98 0 3.96 0 6 0 C6 19.14 6 38.28 6 58 C4.02 58 2.04 58 0 58 C0 38.86 0 19.72 0 0 Z " fill="#474C4C" transform="translate(547,549)"/>
<path d="M0 0 C9.24 0 18.48 0 28 0 C28 0.99 28 1.98 28 3 C20.08 3 12.16 3 4 3 C4 7.95 4 12.9 4 18 C10.93 18 17.86 18 25 18 C25 19.65 25 21.3 25 23 C18.07 23 11.14 23 4 23 C4 28.28 4 33.56 4 39 C2.68 39 1.36 39 0 39 C0 26.13 0 13.26 0 0 Z " fill="#505656" transform="translate(376,642)"/>
<path d="M0 0 C0.33 0 0.66 0 1 0 C1.0825 1.19625 1.165 2.3925 1.25 3.625 C1.96040582 9.20957908 4.4223089 12.61012927 8.625 16.3125 C12.69949323 19.20753467 16.07774132 19.54296163 21 19 C22.94343573 18.3261034 22.94343573 18.3261034 24.75 17.4375 C28 16 28 16 30.4375 16.3125 C30.953125 16.539375 31.46875 16.76625 32 17 C31.02903542 19.81579728 30.0441061 20.96750077 27.625 22.75 C21.10273442 24.9990571 13.94403873 25.26909441 7.5625 22.375 C3.2745339 19.87368644 0.22876279 16.45752558 -2 12 C-2.12082534 10.33654418 -2.1753794 8.66779409 -2.1875 7 C-2.20167969 6.113125 -2.21585938 5.22625 -2.23046875 4.3125 C-2 2 -2 2 0 0 Z " fill="#4C5454" transform="translate(580,658)"/>
<path d="M0 0 C3.27654325 2.67633563 4.60786726 6.19328012 6.1875 10 C6.46013672 10.6290625 6.73277344 11.258125 7.01367188 11.90625 C8.22496537 14.7720672 9 16.85703523 9 20 C3.39 20 -2.22 20 -8 20 C-7.29260504 16.46302519 -6.84071052 14.30330382 -5.37109375 11.23046875 C-5.05849609 10.56982422 -4.74589844 9.90917969 -4.42382812 9.22851562 C-4.09833984 8.55498047 -3.77285156 7.88144531 -3.4375 7.1875 C-2.9434668 6.14819336 -2.9434668 6.14819336 -2.43945312 5.08789062 C-1.63127749 3.38955052 -0.81631623 1.69444231 0 0 Z " fill="#F6F6F4" transform="translate(500,647)"/>
<path d="M0 0 C1.32 0 2.64 0 4 0 C4 12.87 4 25.74 4 39 C2.68 39 1.36 39 0 39 C0 26.13 0 13.26 0 0 Z " fill="#424847" transform="translate(416,642)"/>
<path d="M0 0 C1.65 0 3.3 0 5 0 C5 13.2 5 26.4 5 40 C3.35 40 1.7 40 0 40 C1.98 39.505 1.98 39.505 4 39 C3.67 32.07 3.34 25.14 3 18 C2.34 22.62 1.68 27.24 1 32 C-0.485 32.495 -0.485 32.495 -2 33 C-2.33 31.35 -2.66 29.7 -3 28 C-2.34 28.33 -1.68 28.66 -1 29 C-0.67 19.43 -0.34 9.86 0 0 Z " fill="#626667" transform="translate(560,642)"/>
<path d="M0 0 C2.8301913 3.38263104 4.5032781 7.09118459 6.1875 11.125 C6.59645508 12.07439453 6.59645508 12.07439453 7.01367188 13.04296875 C9 17.7324953 9 17.7324953 9 20 C8.37738281 19.83628906 7.75476563 19.67257812 7.11328125 19.50390625 C2.79307618 18.80465098 -1.44456045 18.89515607 -5.8125 18.9375 C-6.69615234 18.94201172 -7.57980469 18.94652344 -8.49023438 18.95117188 C-10.66018559 18.96290134 -12.83010172 18.98083505 -15 19 C-14.67 18.34 -14.34 17.68 -14 17 C-8.39 17.33 -2.78 17.66 3 18 C2.13375 16.14375 1.2675 14.2875 0.375 12.375 C-1.44287908 8.47954483 -2.20700828 6.82613394 -1.1484375 2.6015625 C-0.57996094 1.31378906 -0.57996094 1.31378906 0 0 Z " fill="#505757" transform="translate(506,649)"/>
<path d="M0 0 C0.33 0 0.66 0 1 0 C1 7.26 1 14.52 1 22 C-0.65 22 -2.3 22 -4 22 C-6.91497071 18.51822944 -8.46899792 15.5135177 -9 11 C-8.01 11 -7.02 11 -6 11 C-5.34 12.32 -4.68 13.64 -4 15 C-3.34 15 -2.68 15 -2 15 C-1.93941406 14.00097656 -1.87882813 13.00195312 -1.81640625 11.97265625 C-1.73261719 10.68230469 -1.64882813 9.39195312 -1.5625 8.0625 C-1.48128906 6.77472656 -1.40007813 5.48695313 -1.31640625 4.16015625 C-1 1 -1 1 0 0 Z " fill="#404848" transform="translate(563,659)"/>
<path d="M0 0 C0 9.9 0 19.8 0 30 C-0.99 30 -1.98 30 -3 30 C-3 20.43 -3 10.86 -3 1 C-1 0 -1 0 0 0 Z " fill="#434A48" transform="translate(535,651)"/>
<path d="M0 0 C1.60488281 0.01450195 1.60488281 0.01450195 3.2421875 0.02929688 C4.35335937 0.05443359 5.46453125 0.07957031 6.609375 0.10546875 C8.29933594 0.12577148 8.29933594 0.12577148 10.0234375 0.14648438 C12.80256764 0.1818123 15.58072863 0.23114355 18.359375 0.29296875 C18.359375 1.28296875 18.359375 2.27296875 18.359375 3.29296875 C9.119375 3.29296875 -0.120625 3.29296875 -9.640625 3.29296875 C-5.4604735 0.15785513 -4.86081347 -0.07756617 0 0 Z " fill="#3D4645" transform="translate(634.640625,677.70703125)"/>
<path d="M0 0 C3.32494886 2.98098864 5.42411818 5.79764848 7 10 C6.14678163 12.79235104 5.07142404 13.92857596 3 16 C1.99267601 14.06629769 0.99436712 12.12789694 0 10.1875 C-0.556875 9.10855469 -1.11375 8.02960938 -1.6875 6.91796875 C-3 4 -3 4 -3 1 C-2.01 0.67 -1.02 0.34 0 0 Z " fill="#F1893C" transform="translate(438,355)"/>
<path d="M0 0 C3.59634744 3.49359465 6.83451967 7.11098131 10 11 C9.34 11.66 8.68 12.32 8 13 C8 13.99 8 14.98 8 16 C3.78185183 12.0299782 0.38772897 7.69159716 -3 3 C-2.01 2.01 -1.02 1.02 0 0 Z " fill="#515859" transform="translate(547,658)"/>
<path d="M0 0 C8.58 0 17.16 0 26 0 C26 0.99 26 1.98 26 3 C21.05 3 16.1 3 11 3 C11 2.67 11 2.34 11 2 C8.03 1.67 5.06 1.34 2 1 C2.33 1.99 2.66 2.98 3 4 C3.12781786 6.67394964 3.04391871 9.32095857 3 12 C0.61891876 7.23783752 0 5.82360246 0 0 Z " fill="#3F4546" transform="translate(625,642)"/>
<path d="M0 0 C9.24 0 18.48 0 28 0 C28 0.99 28 1.98 28 3 C20.41 3 12.82 3 5 3 C5 2.67 5 2.34 5 2 C3.35 1.67 1.7 1.34 0 1 C0 0.67 0 0.34 0 0 Z " fill="#414849" transform="translate(376,642)"/>
<path d="M0 0 C5.71658336 -0.45732667 8.48649253 0.47726246 13 4 C12.34 5.32 11.68 6.64 11 8 C7 6 3 4 -1 2 C-0.67 1.34 -0.34 0.68 0 0 Z " fill="#474D4E" transform="translate(599,642)"/>
<path d="M0 0 C3.77208713 2.45185663 5.91186327 5.04353041 8 9 C6.35 9.66 4.7 10.32 3 11 C1.99421411 9.71283353 0.99553202 8.42011342 0 7.125 C-0.556875 6.40570312 -1.11375 5.68640625 -1.6875 4.9453125 C-3 3 -3 3 -3 1 C-2.01 0.67 -1.02 0.34 0 0 Z " fill="#4D5656" transform="translate(451,656)"/>
<path d="M0 0 C3.42931954 3.7559214 4.56429083 8.23466745 6 13 C4.35 13 2.7 13 1 13 C0.43983252 11.59054634 -0.09748502 10.1719969 -0.625 8.75 C-0.92664063 7.96109375 -1.22828125 7.1721875 -1.5390625 6.359375 C-2.09752136 3.50082285 -1.53690745 2.41040161 0 0 Z " fill="#485151" transform="translate(515,669)"/>
<path d="M0 0 C0.66 2.31 1.32 4.62 2 7 C1.37738281 6.83628906 0.75476563 6.67257812 0.11328125 6.50390625 C-4.20692382 5.80465098 -8.44456045 5.89515607 -12.8125 5.9375 C-14.13797852 5.94426758 -14.13797852 5.94426758 -15.49023438 5.95117188 C-17.66018559 5.96290134 -19.83010172 5.98083505 -22 6 C-21.67 5.34 -21.34 4.68 -21 4 C-15.39 4.33 -9.78 4.66 -4 5 C-4 3.68 -4 2.36 -4 1 C-2 0 -2 0 0 0 Z " fill="#5D6463" transform="translate(513,662)"/>
<path d="M0 0 C0 5.28 0 10.56 0 16 C-0.99 16 -1.98 16 -3 16 C-3 11.05 -3 6.1 -3 1 C-1 0 -1 0 0 0 Z " fill="#424948" transform="translate(380,665)"/>
<path d="M0 0 C-0.33 1.32 -0.66 2.64 -1 4 C-1.33 3.01 -1.66 2.02 -2 1 C-7.28 1 -12.56 1 -18 1 C-18.33 0.34 -18.66 -0.32 -19 -1 C-16.7722603 -1.22307542 -14.54268636 -1.42788178 -12.3125 -1.625 C-11.07113281 -1.74101563 -9.82976562 -1.85703125 -8.55078125 -1.9765625 C-5.07119831 -1.99953004 -3.07515279 -1.54051631 0 0 Z " fill="#424949" transform="translate(515,669)"/>
<path d="M0 0 C0.33 0 0.66 0 1 0 C1.2493357 1.60115576 1.47378648 3.20620159 1.6875 4.8125 C1.87892578 6.15248047 1.87892578 6.15248047 2.07421875 7.51953125 C2 10 2 10 0.51953125 11.82421875 C-0.23263672 12.40623047 -0.23263672 12.40623047 -1 13 C-2.66561399 11.33438601 -2.17115945 9.34037295 -2.1875 7.0625 C-2.20167969 6.16660156 -2.21585938 5.27070312 -2.23046875 4.34765625 C-2 2 -2 2 0 0 Z " fill="#3F4544" transform="translate(580,658)"/>
<path d="M0 0 C3.96 0 7.92 0 12 0 C9 2 9 2 2 2 C2 6.62 2 11.24 2 16 C1.67 16 1.34 16 1 16 C0.67 10.72 0.34 5.44 0 0 Z " fill="#65696A" transform="translate(627,643)"/>
<path d="M0 0 C2.12038635 2.61514317 4.13091744 5.19637616 6 8 C3.16032769 8 0.76264289 7.59732819 -2 7 C-2.33 6.01 -2.66 5.02 -3 4 C-1.5625 1.8125 -1.5625 1.8125 0 0 Z " fill="#535B5B" transform="translate(582,667)"/>
<path d="M0 0 C0.66 0 1.32 0 2 0 C1.835 0.598125 1.67 1.19625 1.5 1.8125 C0.8885876 4.11344336 0.8885876 4.11344336 1 7 C0.71372955 9.67356157 0.34968449 12.33365575 0 15 C-0.33 15 -0.66 15 -1 15 C-1.02693575 12.87506859 -1.04636628 10.75004088 -1.0625 8.625 C-1.07410156 7.44164062 -1.08570313 6.25828125 -1.09765625 5.0390625 C-1 2 -1 2 0 0 Z M2 4 C2.66 4 3.32 4 4 4 C4 6.97 4 9.94 4 13 C3.67 13 3.34 13 3 13 C2.67 10.03 2.34 7.06 2 4 Z " fill="#6A6E6C" transform="translate(578,653)"/>
<path d="M0 0 C2.125 0.375 2.125 0.375 4 1 C2.8141763 4.37503669 1.72426311 6.64722731 -1 9 C-1.66 8.34 -2.32 7.68 -3 7 C-2.34 7 -1.68 7 -1 7 C-1.309375 5.824375 -1.309375 5.824375 -1.625 4.625 C-1.74875 3.75875 -1.8725 2.8925 -2 2 C-1.34 1.34 -0.68 0.68 0 0 Z " fill="#494E4E" transform="translate(581,649)"/>
<path d="M0 0 C1.32 0 2.64 0 4 0 C4.75 1.75 4.75 1.75 5 4 C3.0625 6.25 3.0625 6.25 1 8 C0.26919734 6.02253397 -0.39421747 4.01927511 -1 2 C-0.67 1.34 -0.34 0.68 0 0 Z " fill="#F0893D" transform="translate(505,486)"/>
<path d="M0 0 C0.99 0.33 1.98 0.66 3 1 C3.6875 3.0625 3.6875 3.0625 4 5 C2.35 5 0.7 5 -1 5 C-1.33 4.01 -1.66 3.02 -2 2 C-1.34 1.34 -0.68 0.68 0 0 Z " fill="#596161" transform="translate(517,677)"/>
<path d="M0 0 C1.32 0.66 2.64 1.32 4 2 C3.34 3.32 2.68 4.64 2 6 C0.68 5.34 -0.64 4.68 -2 4 C-1.34 2.68 -0.68 1.36 0 0 Z " fill="#525959" transform="translate(608,644)"/>
<path d="M0 0 C-0.33 0.99 -0.66 1.98 -1 3 C-2.65 2.67 -4.3 2.34 -6 2 C-6 1.34 -6 0.68 -6 0 C-3.50907189 -1.24546405 -2.58919267 -0.7767578 0 0 Z " fill="#F0924C" transform="translate(512,398)"/>
<path d="M0 0 C1.32 0 2.64 0 4 0 C4.33 0.99 4.66 1.98 5 3 C3.35 3.66 1.7 4.32 0 5 C0 3.35 0 1.7 0 0 Z " fill="#545959" transform="translate(437,641)"/>
</svg>
